<svg id="svg3457" xmlns:rdf="http://www.w3.org/1999/02/22-rdf-syntax-ns#" style="stroke-linejoin:round;stroke-miterlimit:1.4142;clip-rule:evenodd;fill-rule:evenodd" xmlns="http://www.w3.org/2000/svg" xml:space="preserve" height="100%" width="100%" version="1.1" xmlns:cc="http://creativecommons.org/ns#" xmlns:dc="http://purl.org/dc/elements/1.1/" viewBox="0 0 176 207"><metadata id="metadata3538"><rdf:RDF><cc:Work rdf:about=""><dc:format>image/svg+xml</dc:format><dc:type rdf:resource="http://purl.org/dc/dcmitype/StillImage"/><dc:title/></cc:Work></rdf:RDF></metadata><rect id="Artboard1" style="fill:none" height="206.78" width="175.55" y="0" x="0"/><g id="Back-Muscles"><g id="g3461"><g id="Rhomboids"><path id="path4711" d="m130.76 35.466-15.718 13.272c1.8686 0 1.9788 9.1273 1.9788 9.1273l13.67-13.325v0.09679l13.741 13.392s0.10825-9.1252 1.9769-9.1252l-15.649-13.215v-0.22303z" style="fill-rule:evenodd;fill:#999999"/></g><g id="Erector-Spinae"><path id="path4756" d="m127.5 31.532-1.9802 48.735-1.1001 13.091 0.99009 7.0407 5.1705 1.5402 4.4004-1.3201 1.5402-7.3707-0.66007-12.761-1.8702-48.625-2.0902-6.7107s1.8314 53.286 0.33003 65.127c-1.5014 11.84-1.6502 6.2706-1.6502 6.2706s-0.3519 5.4831-2.3102-6.3806 1.3201-65.347 1.3201-65.347z" style="fill-rule:evenodd;fill:#999999"/></g><g id="Trapezius"><g id="g3464"><path id="path3466" style="fill-opacity:0.8;fill:#262626" d="m129.54 76.453c0.075 0.385 0.737-2.948 1.567-2.58 0.829 0.369 1.852 2.584 1.842 2.488-0.26-2.728 2.184-6.972 3.963-9.859 1.932-3.136 2.94-3.318 4.238-7.371 0.517-1.615 0-12.163 2.211-16.033 2.212-3.869 3.778-3.473 5.437-4.422 0.362-0.207-13.577-1.309-14.779-10.719-0.198-1.556-0.211-2.973 0.036-4.392 0.247-1.42-7.247-1.995-7.647-0.092-0.612 2.906 4.562 11.205-13.084 13.913-1.239 0.19 3.655 2.08 6.357 6.173 0.659 0.998 0.647 3.367 2.672 16.678 0.453 2.976 6.322 11.786 7.187 16.216z"/></g></g><g id="Lats"><path id="path3469" style="fill:#404040" d="m134.34 75.599s5.048 5.158 5.597 8.231 0.557 8.648 3.183 8.231c0.035-0.005-0.895-2.038 0.325-4.136 4.193-7.206 4.394-15.619 4.394-15.619l1.427-13.718s-3.915 1.393-7.024-0.659c-0.623-0.411-0.256 4.772-3.251 7.473-1.226 1.105-5.858 7.124-4.651 10.197z"/><path id="path3471" style="fill:#404040" d="m127.78 75.599s-5.049 5.158-5.597 8.231c-0.549 3.073-0.557 8.648-3.183 8.231-0.035-0.005 0.895-2.038-0.326-4.136-4.192-7.206-4.393-15.619-4.393-15.619l-1.427-13.718s3.915 1.393 7.024-0.659c0.623-0.411 0.255 4.772 3.251 7.473 1.226 1.105 5.858 7.124 4.651 10.197z"/></g><g id="Triceps"><path id="path3474" style="fill:#333" d="m149.27 49.372s3.715-2.597 5.023-1.85c1.309 0.748 3.739 5.515 4.02 7.478 0.28 1.963 1.495 17.573 1.495 17.573s-0.467 1.945-1.776 2.422c-1.308 0.476-1.121-4.059-2.113-4.555-0.991-0.496-0.045 3.516-1.037 3.832-0.991 0.315-3.876-1.082-3.876-1.082l-2.194-6.446s2.058-13.917 0.458-17.372z"/><path id="path3476" style="fill:#333" d="m112.67 49.372s-3.715-2.597-5.023-1.85c-1.309 0.748-3.739 5.515-4.02 7.478-0.28 1.963-1.495 17.573-1.495 17.573s0.467 1.945 1.776 2.422c1.308 0.476 1.121-4.059 2.113-4.555 0.991-0.496 0.045 3.516 1.036 3.832 0.992 0.315 3.877-1.082 3.877-1.082l2.194-6.446s-2.058-13.917-0.458-17.372z"/></g><g id="Forearms"><path id="path3479" style="fill:#595959" d="m159.8 73.41s3.727 5.905 4.477 10.404-0.094 13.404 2.062 15.466-6.235 3.749-6.539 1.687c-0.303-2.062-9.5-17.601-8.458-20.433 0.282-0.766-0.281-7.405-0.281-7.405l3.241 1.866s0.696 2.821-0.898 3.664c-1.593 0.844 0.938 3.281 1.969 2.25s1.687-3 2.905-3.375c1.219-0.375-0.937-2.104-0.187-2.504 0.75-0.401 1.709-1.62 1.709-1.62z"/><path id="path3481" style="fill:#595959" d="m102.44 73.41s-3.727 5.905-4.477 10.404 0.094 13.404-2.062 15.466 6.236 3.749 6.539 1.687 9.5-17.601 8.458-20.433c-0.282-0.766 0.281-7.405 0.281-7.405l-3.241 1.866s-0.696 2.821 0.898 3.664c1.593 0.844-0.937 3.281-1.968 2.25-1.032-1.031-1.688-3-2.906-3.375-1.219-0.375 0.937-2.104 0.187-2.504-0.749-0.401-1.709-1.62-1.709-1.62z"/></g><g id="Glutes"><path id="path3484" style="fill:#1a1a1a" d="m116.29 89.962c0.806-0.134 13.533 6.223 14.226 16.039 0.693 9.815-6.928 13.33-13.359 11.611-6.43-1.719-5.954-9.396-5.786-11.242 0.12-1.318 1.27-4.277 2.315-11.444 0.181-1.241 1.798-4.83 2.604-4.964z"/><path id="path3486" style="fill:#1a1a1a" d="m147.46 91.166c-0.718-0.286-13.58 3.525-15.977 13.028-2.396 9.503 3.994 14.407 10.225 13.947 6.231-0.459 7.168-8.085 7.344-9.93 0.126-1.316-0.403-4.44-0.083-11.675 0.056-1.253-0.79-5.085-1.509-5.37z"/></g><g id="Hamstrings"><path id="path3489" style="fill:#333" d="m134.03 118.73s12.347 0.487 14.305-1.231c1.959-1.718 2.481 9.396 0 21.406-2.48 12.01-0.916 13.351-1.279 13.035-2.739-2.372-4.386-8.297-4.578-8.153-0.152 0.115-5.704 8.313-4.791 14.7 0.052 0.368-5.202-28.975-5.985-32.542s-1.965-6.826 2.328-7.215z"/><path id="path3491" style="fill:#333" d="m127.91 118.73s-12.283 0.487-14.231-1.231c-1.947-1.718-2.467 9.396 0 21.406 2.468 12.01 0.912 13.351 1.273 13.035 2.725-2.372 4.363-8.297 4.554-8.153 0.152 0.115 5.675 8.313 4.767 14.7-0.052 0.368 5.175-28.975 5.954-32.542 0.778-3.567 0.171-7.106-2.317-7.215z"/></g><g id="Calves"><path id="path3494" style="fill:#4d4d4d" d="m142.88 152.39s-5.718 7.108-6.096 10.007c-0.378 2.898-0.387 16.918 0.677 19.353 0.779 1.782 4.588-3.96 5.545-7.56 0.956-3.6-0.014 3.34 2.394 5.922 0.407 0.436 4.674-13.753 3.447-18.453-1.702-6.519-2.344-8.369-1.913-11.391 0.678-4.752-2.574 2.122-3.046 4.264s-1.008-2.142-1.008-2.142z"/><path id="path3496" style="fill:#4d4d4d" d="m119.24 152.39s5.718 7.108 6.096 10.007c0.378 2.898 0.387 16.918-0.677 19.353-0.779 1.782-4.588-3.96-5.545-7.56s0.014 3.34-2.394 5.922c-0.407 0.436-4.674-13.753-3.447-18.453 1.702-6.519 2.344-8.369 1.913-11.391-0.678-4.752 2.574 2.122 3.046 4.264s1.008-2.142 1.008-2.142z"/></g></g></g><g id="Front-Muscles"><g id="Deltoids"><path id="path3500" style="fill:#333" d="m35.684 38.139s-12.432-7.085-17.512 3.476c-1.869 3.885-0.459 16.146-0.401 16.71 0.038 0.373 3.69-7.88 6.817-9.625 0.537-0.299-0.144-8.31 11.096-10.561z"/><path id="path3502" style="fill:#333" d="m52.463 38.139s12.432-7.085 17.512 3.476c1.869 3.885 0.459 16.146 0.401 16.71-0.038 0.373-3.69-7.88-6.818-9.625-0.536-0.299 0.145-8.31-11.095-10.561z"/></g><g id="Biceps"><path id="path3505" style="fill:#404040" d="m25.232 48.934s1.105 16.785-0.186 17.535c-1.481 0.86-2.239 9.14-2.239 9.14s-0.746-2.099-1.585-2.005c-0.84 0.093-2.425 1.679-2.752 2.238-0.326 0.56-5.223-17.301 6.762-26.908z"/><path id="path3507" style="fill:#404040" d="m63.528 51.098s-1.105 16.784 0.187 17.534c1.481 0.861 2.238 9.141 2.238 9.141s0.746-2.099 1.586-2.005c0.839 0.093 2.425 1.678 2.751 2.238 0.327 0.56 5.223-17.302-6.762-26.908z"/></g><g id="Obliques"><path id="path3515" style="fill:#262626" d="m36.007 62.836s1.395 31.809 0 32.945c-1.394 1.136-1.678-6.343-6.79-7.195-0.953-0.159-0.163-17.23-2.449-21.3-2.285-4.071 8.267-5.775 9.239-4.45z"/><path id="path3517" style="fill:#262626" d="m51.917 62.836s-1.395 31.809 0 32.945c1.394 1.136 1.678-6.343 6.79-7.195 0.953-0.159 0.163-17.23 2.449-21.3 2.285-4.071-8.267-5.775-9.239-4.45z"/></g><g id="Serratus"><path id="path4738" style="fill-rule:evenodd;clip-rule:evenodd;fill:#999999" d="m60.547 68.458-1.0154 1.0408-1.0789-0.21533 0.09519-1.5791 1.2058-1.6868-1.7769 1.3638-1.301-0.03589 0.15866-1.3996 1.9991-1.9021-2.3798 1.4355-1.2375 0.21533 0.44423-1.8303 1.9039-1.9021-2.8558 1.5791-1.4914 0.14355 0.60289-2.1892 2.475-1.615 2.5702-1.8662 1.3962-0.86132 0.69808 0.50244 0.47596 3.0146 0.03173 3.3017-0.22212 2.3327z"/><path id="path4678-6" style="fill-rule:evenodd;clip-rule:evenodd;fill:#999999" d="m26.99 68.136 1.0154 1.0408 1.0789-0.21533-0.09519-1.5791-1.2058-1.6868 1.7769 1.3638 1.301-0.03589-0.15866-1.3996-1.9991-1.9021 2.3798 1.4355 1.2375 0.21533-0.44423-1.8303-1.9039-1.9021 2.8558 1.5791 1.4914 0.14355-0.60289-2.1892-2.475-1.615-2.5702-1.8662-1.3962-0.86132-0.69808 0.50244-0.47596 3.0146-0.03173 3.3017 0.22212 2.3327z"/></g><g id="Pectorals"><path id="path3510" style="fill:#595959" d="m42.057 40.112c-0.311 3.984 2.007 8.955 2.037 11.938 0.04 4.039-0.33 7.303-7.463 8.098-5.733 0.638-7.022-1.737-8.88-2.919-1.159-0.738-1.515-8.373-2.573-9.527-0.723-0.788 3.991-8.909 10.523-8.851 6.532 0.057 6.421 0.425 6.356 1.261z"/><path id="path3512" style="fill:#595959" d="m46.136 40.112c0.311 3.984-2.008 8.955-2.037 11.938-0.04 4.039 0.329 7.303 7.463 8.098 5.733 0.638 7.022-1.737 8.879-2.919 1.16-0.738 1.515-8.373 2.574-9.527 0.723-0.788-3.991-8.909-10.523-8.851-6.533 0.057-6.422 0.425-6.356 1.261z"/></g><g id="Abs"><path id="path3520" style="fill:#595959" d="m44.343 60.277s-5.885-1.868-8.56 1.474c-2.675 3.341 0.465 16.298-0.248 21.113s3.292 24.8 5.331 25.563c1.267 0.475 2.143 0.569 3.567-0.089 1.256-0.58 7.126-13.883 7.896-25.594 0.356-5.416 4.855-21.729-2.992-22.913-4.539-0.685-4.994 0.446-4.994 0.446z"/></g><g id="Quads"><path id="path3523" style="fill:#333" d="m31.536 95.898s11.073 23.633 10.268 34.698-2.012 14.887-2.012 17.704c0 2.816 0.361-4.209-3.165-4.225-4.132-0.019-7.219 3.332-8.338 7.023-0.159 0.527-0.999-10.497-0.999-10.497s-1.416-3.038-2.386-13.241c-1.468-15.448 10.299-21.015 6.632-31.462"/><path id="path3525" style="fill:#333" d="m56.329 95.898s-11.073 23.633-10.268 34.698c0.804 11.065 2.012 14.887 2.012 17.704 0 2.816-0.361-4.209 3.165-4.225 4.131-0.019 7.219 3.332 8.337 7.023 0.16 0.527 0.999-10.497 0.999-10.497s1.417-3.038 2.387-13.241c1.468-15.448-10.299-21.015-6.632-31.462"/></g><g id="Adductors"><path id="path3528" style="fill:#4d4d4d" d="m34.684 93.947s4.231 11.716 5.884 14.86c2.454 4.668 3.854 8.447 3.487 9.049-0.368 0.602-1.254 9.8-1.32 8.966-0.474-6.017-7.45-29.324-8.592-30.924-0.63-0.882 0.537-1.957 0.541-1.951z"/><path id="path3530" style="fill:#4d4d4d" d="m53.036 93.947s-4.231 11.716-5.884 14.86c-2.454 4.668-3.854 8.447-3.487 9.049 0.368 0.602 1.254 9.8 1.32 8.966 0.474-6.017 7.45-29.324 8.592-30.924 0.63-0.882-0.537-1.957-0.541-1.951z"/></g></g><path id="Front" style="stroke:#000;stroke-width:1px;fill:none" d="m44.055 118.16c-0.3 3.531 3.185 22.306 4.422 29.636 0.589 3.472 2.204 9.13 1.623 12.134-0.83 4.187-1.07 9.604-0.613 12.759 0.288 1.916 1.195 10.752-0.103 13.984-0.678 1.695-1.922 10.38-1.922 10.38-3.241 8.182-1.412 7.779-1.412 7.779 1.003 1.231 2.722 0.097 2.722 0.097 1.309 0.834 2.215-0.198 2.215-0.198 1.124 0.93 2.434-0.115 2.434-0.115 1.412 0.733 2.721-0.618 2.721-0.618 0.811 0.408 1.009-0.108 1.009-0.108 2.433-0.156-1.357-7.941-1.357-7.941-0.908-6.993 0.9-10.884 0.9-10.884 5.923-17.565 6.224-22.226 3.856-28.845-0.666-1.911-0.835-2.668-0.528-3.497 0.709-1.915 0.192-9.617 1.057-12.675 1.669-5.898 3.316-20.856 4.174-27.836 1.153-9.401-4.085-22.007-4.085-22.007-1.147-5.129 0.535-23.406 0.535-23.406 2.349 3.655 2.259 10.107 2.259 10.107-0.373 6.766 5.466 17.107 5.466 17.107 2.806 4.274 3.868 8.328 3.868 8.629 0 1.231-0.269 4.212-0.269 4.212l0.107 2.595c0.049 0.661 0.42 2.937 0.36 4.037-0.438 6.769 0.638 5.495 0.638 5.495 0.907 0 1.904-5.447 1.904-5.447 0 1.405-0.343 5.61 0.415 7.197 0.906 1.892 1.573-0.325 1.585-0.77 0.24-8.619 0.758-6.361 0.758-6.361 0.504 6.992 1.123 8.572 2.234 8.025 0.842-0.401 0.072-8.391 0.072-8.391 1.441 4.746 2.534 5.502 2.534 5.502 2.379 1.67 0.908-2.943 0.578-3.856-1.76-4.854-1.815-6.536-1.815-6.536 2.199 4.361 3.857 4.2 3.857 4.2 2.144-0.685-1.875-6.86-4.23-9.819-1.201-1.507-2.751-3.526-3.201-4.724-0.733-2.03-1.286-8.557-1.286-8.557-0.222-7.702-2.126-11.047-2.126-11.047-3.255-5.211-3.868-14.93-3.868-14.93l-0.144-16.411c-1.141-11.194-9.389-11.274-9.389-11.274-8.337-1.241-9.497-3.935-9.497-3.935-1.766-2.541-0.757-7.412-0.757-7.412 1.465-1.192 2.03-4.355 2.03-4.355 2.433-1.866 2.313-4.596 1.19-4.566-0.902 0.024-0.698-0.723-0.698-0.723 1.522-12.288-9.387-12.915-9.387-12.915h-1.665s-10.914 0.627-9.395 12.912c0 0 0.204 0.748-0.705 0.723-1.121-0.03-1.225 2.7 1.199 4.566 0 0 0.564 3.162 2.03 4.355 0 0 1.009 4.871-0.757 7.412 0 0-1.156 2.694-9.497 3.935 0 0-8.262 0.08-9.385 11.274l-0.156 16.411s-0.601 9.719-3.869 14.93c0 0-1.895 3.346-2.114 11.047 0 0-0.556 6.527-1.286 8.557-0.445 1.192-1.993 3.211-3.205 4.724-2.375 2.953-6.368 9.115-4.232 9.819 0 0 1.666 0.161 3.856-4.2 0 0-0.045 1.67-1.802 6.536-0.345 0.901-1.814 5.514 0.565 3.856 0 0 1.102-0.757 2.535-5.502 0 0-0.769 7.99 0.086 8.391 1.118 0.548 1.728-1.033 2.232-8.025 0 0 0.517-2.258 0.756 6.361 0.012 0.445 0.664 2.662 1.575 0.77 0.768-1.587 0.423-5.785 0.423-7.197 0 0 0.986 5.448 1.907 5.448 0 0 1.084 1.273 0.639-5.496-0.072-1.106 0.316-3.376 0.364-4.037l0.105-2.595s-0.271-2.974-0.271-4.212c0-0.307 1.064-4.355 3.869-8.629 0 0 5.833-10.346 5.457-17.107 0 0-0.081-6.452 2.268-10.107 0 0 1.667 18.276 0.537 23.406 0 0-5.247 12.606-4.09 22.007 0.853 6.998 2.496 21.937 4.169 27.836 0.874 3.052 0.357 10.752 1.058 12.675 0.316 0.835 0.15 1.605-0.529 3.497-2.355 6.619-2.055 11.281 3.868 28.845 0 0 1.823 3.892 0.902 10.884 0 0-3.784 7.785-1.361 7.941 0 0 0.19 0.516 1.01 0.108 0 0 1.309 1.351 2.723 0.618 0 0 1.31 1.046 2.43 0.115 0 0 0.898 1.032 2.207 0.198 0 0 1.718 1.159 2.739-0.097 0 0 1.814 0.403-1.415-7.779 0 0-1.237-8.675-1.919-10.38-1.3-3.231-0.382-12.086-0.105-13.984 0.447-3.172 0.208-8.577-0.609-12.759-0.598-2.997 1.021-8.656 1.619-12.134 1.228-7.323 4.403-29.633 4.403-29.633z"/><path id="Back" style="stroke:#000;stroke-width:1px;fill:none" d="m130.97 118.16c-0.3 3.531 3.184 22.306 4.422 29.636 0.588 3.472 2.203 9.13 1.622 12.134-0.829 4.187-1.069 9.604-0.612 12.759 0.288 1.916 1.194 10.752-0.103 13.984-0.679 1.695-1.923 10.38-1.923 10.38-3.24 8.182-1.411 7.779-1.411 7.779 1.003 1.231 2.721 0.097 2.721 0.097 1.31 0.834 2.216-0.198 2.216-0.198 1.124 0.93 2.434-0.115 2.434-0.115 1.411 0.733 2.721-0.618 2.721-0.618 0.81 0.408 1.009-0.108 1.009-0.108 2.432-0.156-1.358-7.941-1.358-7.941-0.907-6.993 0.901-10.884 0.901-10.884 5.923-17.565 6.224-22.226 3.856-28.845-0.667-1.911-0.835-2.668-0.529-3.497 0.71-1.915 0.193-9.617 1.058-12.675 1.669-5.898 3.316-20.856 4.174-27.836 1.153-9.401-4.085-22.007-4.085-22.007-1.148-5.129 0.534-23.406 0.534-23.406 2.349 3.655 2.26 10.107 2.26 10.107-0.373 6.766 5.466 17.107 5.466 17.107 2.805 4.274 3.868 8.328 3.868 8.629 0 1.231-0.27 4.212-0.27 4.212l0.108 2.595c0.048 0.661 0.42 2.937 0.36 4.037-0.438 6.769 0.637 5.495 0.637 5.495 0.908 0 1.905-5.447 1.905-5.447 0 1.405-0.343 5.61 0.415 7.197 0.906 1.892 1.573-0.325 1.585-0.77 0.24-8.619 0.757-6.361 0.757-6.361 0.505 6.992 1.124 8.572 2.235 8.025 0.841-0.401 0.072-8.391 0.072-8.391 1.441 4.746 2.534 5.502 2.534 5.502 2.379 1.67 0.908-2.943 0.577-3.856-1.76-4.854-1.814-6.536-1.814-6.536 2.199 4.361 3.856 4.2 3.856 4.2 2.145-0.685-1.874-6.86-4.229-9.819-1.201-1.507-2.751-3.526-3.201-4.724-0.733-2.03-1.286-8.557-1.286-8.557-0.222-7.702-2.126-11.047-2.126-11.047-3.256-5.211-3.868-14.93-3.868-14.93l-0.144-16.411c-1.142-11.194-9.39-11.274-9.39-11.274-8.337-1.241-9.497-3.935-9.497-3.935-1.766-2.541-0.756-7.412-0.756-7.412 1.465-1.192 2.03-4.355 2.03-4.355 2.433-1.866 2.313-4.596 1.19-4.566-0.902 0.024-0.698-0.723-0.698-0.723 1.521-12.288-9.387-12.915-9.387-12.915h-1.666s-10.913 0.627-9.394 12.912c0 0 0.204 0.748-0.705 0.723-1.121-0.03-1.226 2.7 1.198 4.566 0 0 0.565 3.162 2.03 4.355 0 0 1.01 4.871-0.756 7.412 0 0-1.156 2.694-9.497 3.935 0 0-8.262 0.08-9.386 11.274l-0.156 16.411s-0.6 9.719-3.869 14.93c0 0-1.895 3.346-2.114 11.047 0 0-0.555 6.527-1.285 8.557-0.445 1.192-1.994 3.211-3.205 4.724-2.376 2.953-6.368 9.115-4.232 9.819 0 0 1.666 0.161 3.856-4.2 0 0-0.045 1.67-1.802 6.536-0.346 0.901-1.814 5.514 0.565 3.856 0 0 1.102-0.757 2.534-5.502 0 0-0.768 7.99 0.087 8.391 1.118 0.548 1.727-1.033 2.232-8.025 0 0 0.516-2.258 0.756 6.361 0.012 0.445 0.664 2.662 1.575 0.77 0.768-1.587 0.423-5.785 0.423-7.197 0 0 0.985 5.448 1.907 5.448 0 0 1.084 1.273 0.639-5.496-0.072-1.106 0.316-3.376 0.364-4.037l0.105-2.595s-0.271-2.974-0.271-4.212c0-0.307 1.064-4.355 3.868-8.629 0 0 5.833-10.346 5.458-17.107 0 0-0.081-6.452 2.268-10.107 0 0 1.667 18.276 0.537 23.406 0 0-5.247 12.606-4.09 22.007 0.852 6.998 2.496 21.937 4.169 27.836 0.874 3.052 0.357 10.752 1.058 12.675 0.315 0.835 0.15 1.605-0.529 3.497-2.355 6.619-2.055 11.281 3.868 28.845 0 0 1.823 3.892 0.902 10.884 0 0-3.785 7.785-1.361 7.941 0 0 0.19 0.516 1.009 0.108 0 0 1.309 1.351 2.724 0.618 0 0 1.31 1.046 2.43 0.115 0 0 0.898 1.032 2.207 0.198 0 0 1.718 1.159 2.739-0.097 0 0 1.814 0.403-1.416-7.779 0 0-1.237-8.675-1.918-10.38-1.3-3.231-0.382-12.086-0.105-13.984 0.447-3.172 0.207-8.577-0.609-12.759-0.598-2.997 1.021-8.656 1.618-12.134 1.229-7.323 4.404-29.633 4.404-29.633z"/></svg>
